# xmcd
#
# Track frame offsets: 
#        150
#        15044
#        31067
#        52607
#        72677
#        91715
#        109595
#        127973
#        153465
#        170150
#
# Disc length: 2539 seconds
#
# Revision: 0
# Processed by: cddbd v1.5.2PL0 Copyright (c) Steve Scherf et al.
# Submitted via: ExactAudioCopy v1.0b4
#
DISCID=6c09e90a
DTITLE=Blended Blues Company - Walking And Blues
DYEAR=2013
DGENRE=Blues
TTITLE0=Seventeen Days
TTITLE1=Walking And Groove
TTITLE2=Smell Of The Night
TTITLE3=Blackmail
TTITLE4=Let Me Tell You
TTITLE5=At The Dawn
TTITLE6=Where Did You Go
TTITLE7=Eyes Of Bird
TTITLE8=The Curse
TTITLE9=Year Old Blues
EXTD=
EXTT0=
EXTT1=
EXTT2=
EXTT3=
EXTT4=
EXTT5=
EXTT6=
EXTT7=
EXTT8=
EXTT9=
PLAYORDER=
